<svg width="455" height="46" xmlns="http://www.w3.org/2000/svg"><path d="M27.456 28.112h-3.648c-.912 4.224-3.936 6.912-8.208 6.912-2.304 0-4.32-.816-5.904-2.4-2.16-2.208-2.4-4.704-2.4-11.712s.24-9.504 2.4-11.712c1.584-1.584 3.6-2.4 5.904-2.4 4.272 0 7.2 2.688 8.112 6.912h3.744C26.256 7.328 21.792 3.536 15.6 3.536c-3.552 0-6.432 1.248-8.544 3.36-3.216 3.216-3.408 6.192-3.408 14.016s.192 10.8 3.408 14.016c2.112 2.112 4.992 3.36 8.544 3.36 6.144 0 10.656-3.792 11.856-10.176zm28.656.48c0-2.832-1.056-5.136-2.88-6.72-1.536-1.392-3.024-1.968-6.192-2.448l-3.984-.624c-1.776-.288-3.408-.864-4.464-1.776-1.056-.912-1.536-2.304-1.536-3.984 0-3.84 2.64-6.384 7.248-6.384 3.552 0 5.904 1.008 7.968 2.976l2.352-2.352c-2.928-2.592-5.808-3.744-10.176-3.744-6.768 0-10.944 3.792-10.944 9.6 0 2.784.912 4.896 2.64 6.432 1.536 1.344 3.552 2.16 6.24 2.592l3.984.576c2.448.384 3.408.72 4.464 1.68 1.152 1.008 1.68 2.448 1.68 4.272 0 4.032-3.072 6.336-8.112 6.336-3.84 0-6.48-.864-9.312-3.696l-2.448 2.448c3.168 3.216 6.576 4.512 11.664 4.512 7.152 0 11.808-3.696 11.808-9.696zm21.792-.96V3.824h-3.648v23.328c0 5.04-2.544 7.872-7.008 7.872-2.832 0-4.128-1.008-5.376-2.256l-2.448 2.448c2.112 2.112 4.56 3.072 7.824 3.072 6.24 0 10.656-4.08 10.656-10.656zm30 .96c0-2.832-1.056-5.136-2.88-6.72-1.536-1.392-3.024-1.968-6.192-2.448l-3.984-.624c-1.776-.288-3.408-.864-4.464-1.776-1.056-.912-1.536-2.304-1.536-3.984 0-3.84 2.64-6.384 7.248-6.384 3.552 0 5.904 1.008 7.968 2.976l2.352-2.352c-2.928-2.592-5.808-3.744-10.176-3.744-6.768 0-10.944 3.792-10.944 9.6 0 2.784.912 4.896 2.64 6.432 1.536 1.344 3.552 2.16 6.24 2.592l3.984.576c2.448.384 3.408.72 4.464 1.68 1.152 1.008 1.68 2.448 1.68 4.272 0 4.032-3.072 6.336-8.112 6.336-3.84 0-6.48-.864-9.312-3.696l-2.448 2.448c3.168 3.216 6.576 4.512 11.664 4.512 7.152 0 11.808-3.696 11.808-9.696zm26.982-3.012c-.96-1.38-2.16-2.22-4.14-2.22-4.05 0-6.54 3.06-7.35 7.41-.15.75-.21 1.65-.21 2.19 0 2.67 1.35 5.22 5.04 5.22 1.71 0 3.39-.63 4.83-2.1l-.9-1.05c-1.26 1.32-2.37 1.89-3.93 1.89-1.77 0-3.6-1.05-3.6-3.87 0-.81.09-1.47.24-2.28.27-1.47.9-3.24 2.07-4.5 1.11-1.17 2.4-1.65 3.66-1.65 1.44 0 2.34.54 3.21 1.83l1.08-.87zm13.38 1.44c0-3.15-2.82-3.66-4.68-3.66-2.31 0-3.81.63-5.16 2.16l.93 1.02c1.2-1.32 2.31-1.89 4.26-1.89 1.95 0 3.21.78 3.21 2.37 0 .39-.06.78-.12 1.08l-.36 1.8h-4.59c-1.62 0-3.03.33-4.23 1.53-.96.96-1.32 2.22-1.32 3.36 0 2.76 2.25 3.39 4.44 3.39 1.95 0 3.21-.48 4.41-1.68l-.33 1.5h1.44l1.98-9.9c.06-.36.12-.81.12-1.08zm-2.16 4.05l-.39 2.04c-.21 1.08-.66 1.92-1.29 2.55-.87.84-2.07 1.26-3.45 1.26-2.37 0-3.3-.72-3.3-2.13 0-2.49 1.77-3.72 4.23-3.72h4.2zm16.86-6.18c-1.14-.99-2.58-1.53-4.47-1.53-2.04 0-3.48.6-4.47 1.59-.87.87-1.29 2.16-1.29 3.15 0 1.11.45 2.64 3.66 3.09l1.98.27c1.41.18 2.31.6 2.31 2.1 0 1.53-1.44 3.36-4.68 3.36-2.04 0-3.27-.54-4.29-1.74l-1.11.96c1.23 1.38 2.91 2.04 5.25 2.04 1.98 0 3.81-.54 4.92-1.59 1.08-1.05 1.38-2.1 1.38-2.97 0-2.19-.99-3.09-3.54-3.45l-1.95-.27c-1.62-.21-2.49-.78-2.49-1.89 0-1.62 1.35-3.42 4.08-3.42 1.68 0 2.58.36 3.63 1.23l1.08-.93zm14.7.69c-.96-1.38-2.16-2.22-4.14-2.22-4.05 0-6.54 3.06-7.35 7.41-.15.75-.21 1.65-.21 2.19 0 2.67 1.35 5.22 5.04 5.22 1.71 0 3.39-.63 4.83-2.1l-.9-1.05c-1.26 1.32-2.37 1.89-3.93 1.89-1.77 0-3.6-1.05-3.6-3.87 0-.81.09-1.47.24-2.28.27-1.47.9-3.24 2.07-4.5 1.11-1.17 2.4-1.65 3.66-1.65 1.44 0 2.34.54 3.21 1.83l1.08-.87zm13.38 1.44c0-3.15-2.82-3.66-4.68-3.66-2.31 0-3.81.63-5.16 2.16l.93 1.02c1.2-1.32 2.31-1.89 4.26-1.89 1.95 0 3.21.78 3.21 2.37 0 .39-.06.78-.12 1.08l-.36 1.8h-4.59c-1.62 0-3.03.33-4.23 1.53-.96.96-1.32 2.22-1.32 3.36 0 2.76 2.25 3.39 4.44 3.39 1.95 0 3.21-.48 4.41-1.68l-.33 1.5h1.44l1.98-9.9c.06-.36.12-.81.12-1.08zm-2.16 4.05l-.39 2.04c-.21 1.08-.66 1.92-1.29 2.55-.87.84-2.07 1.26-3.45 1.26-2.37 0-3.3-.72-3.3-2.13 0-2.49 1.77-3.72 4.23-3.72h4.2zm19.62-14.43h-1.47l-1.8 8.91c-.81-1.77-2.4-2.19-3.72-2.19-1.53 0-2.82.42-3.96 1.56-1.38 1.38-2.1 3.54-2.55 5.85-.18.9-.3 1.8-.3 2.67 0 2.76 1.11 4.74 4.23 4.74 1.32 0 2.76-.24 4.23-2.04l-.39 1.86h1.47l4.26-21.36zm-3.96 11.4c0 .84-.15 1.8-.33 2.73-.6 3.12-1.8 6.15-5.1 6.15-2.25 0-2.97-1.5-2.97-3.42 0-.84.15-1.8.33-2.73.6-3.12 1.8-6.15 5.1-6.15 2.25 0 2.97 1.5 2.97 3.42zm9.54-4.5h-1.47L209.736 38h1.47l2.88-14.46zm1.44-6.66h-1.8l-.36 1.8h1.8l.36-1.8zm13.77 10.59c0-2.52-1.68-4.11-4.08-4.11-2.1 0-3.48.72-4.47 1.89l.33-1.71h-1.47L216.726 38h1.47l1.77-8.88c.81-4.02 3.81-4.5 4.83-4.5 1.77 0 3.03.93 3.03 2.88 0 .45-.09 1.02-.18 1.53l-1.8 8.97h1.47l1.83-9.15c.09-.45.15-1.02.15-1.38zm16.11-3.93h-1.47l-.39 2.01c-.81-1.83-2.43-2.19-3.78-2.19-1.38 0-2.79.39-3.93 1.53-1.38 1.38-2.1 3.45-2.55 5.88-.21 1.23-.3 2.07-.3 2.79 0 2.88 1.38 4.62 4.17 4.62 2.1 0 3.36-.78 4.32-2.01l-.54 2.55c-.81 3.87-3.12 5.1-5.22 5.1-1.53 0-2.49-.66-3.21-1.59l-1.08.93c1.02 1.23 2.37 1.92 4.26 1.92 2.01 0 5.58-.78 6.69-6.36l3.03-15.18zm-2.55 4.47c0 .87-.15 1.83-.33 2.76-.57 3-1.89 6.15-5.13 6.15-2.34 0-2.97-1.5-2.97-3.39 0-.87.15-1.83.33-2.76.57-3.03 1.83-6.15 5.13-6.15 1.92 0 2.97 1.11 2.97 3.39zm23.85-3.12c-1.14-.99-2.58-1.53-4.47-1.53-2.04 0-3.48.6-4.47 1.59-.87.87-1.29 2.16-1.29 3.15 0 1.11.45 2.64 3.66 3.09l1.98.27c1.41.18 2.31.6 2.31 2.1 0 1.53-1.44 3.36-4.68 3.36-2.04 0-3.27-.54-4.29-1.74l-1.11.96c1.23 1.38 2.91 2.04 5.25 2.04 1.98 0 3.81-.54 4.92-1.59 1.08-1.05 1.38-2.1 1.38-2.97 0-2.19-.99-3.09-3.54-3.45l-1.95-.27c-1.62-.21-2.49-.78-2.49-1.89 0-1.62 1.35-3.42 4.08-3.42 1.68 0 2.58.36 3.63 1.23l1.08-.93zm10.29-1.35h-3.03l.93-4.62h-1.47l-.93 4.62h-1.95l-.21 1.08h1.95l-1.92 9.63c-.09.39-.12.78-.12 1.17 0 2.19 1.77 2.58 2.76 2.58h1.35l.27-1.26h-1.11c-1.41 0-1.83-.54-1.83-1.38 0-.39.06-.63.15-1.11l1.92-9.63h3.03l.21-1.08zm13.5 0h-1.65l-6.57 12.63-1.68-12.63h-1.5l2.13 14.43-1.68 3.21c-.84 1.62-1.32 2.1-2.88 2.1h-.57l-.27 1.26h.75c1.35 0 2.16-.27 2.79-.84.36-.33.72-.72 1.26-1.74l9.87-18.42zm6.03-6.9h-1.47l-3.54 17.61c-.09.39-.12.78-.12 1.17 0 2.19 1.77 2.58 2.76 2.58h1.35l.27-1.26h-1.11c-1.41 0-1.83-.54-1.83-1.38 0-.39.06-.63.15-1.11l3.54-17.61zm14.13 11.58c0-2.58-1.41-4.86-4.5-4.86-5.19 0-7.05 5.76-7.05 9.87 0 3.15 1.8 4.95 4.77 4.95 2.22 0 3.81-.66 5.37-2.1l-.99-.99c-1.32 1.2-2.49 1.8-4.32 1.8-2.37 0-3.39-1.59-3.39-3.69 0-.78.09-1.44.21-2.13h9.57c.21-1.11.33-2.22.33-2.85zm-1.44 0c0 .72-.06 1.14-.15 1.68h-8.1c.93-3.6 2.76-5.28 5.16-5.28 1.59 0 3.09 1.05 3.09 3.6zm16.14-4.68h-1.47l-3.51 17.58c-.36 1.77-1.17 2.52-2.7 2.52h-.9l-.24 1.26h1.23c2.19 0 3.54-1.11 4.05-3.6l3.54-17.76zm1.44-6.66h-1.8l-.36 1.8h1.8l.36-1.8zm12.84 10.14c0-3.15-2.82-3.66-4.68-3.66-2.31 0-3.81.63-5.16 2.16l.93 1.02c1.2-1.32 2.31-1.89 4.26-1.89 1.95 0 3.21.78 3.21 2.37 0 .39-.06.78-.12 1.08l-.36 1.8h-4.59c-1.62 0-3.03.33-4.23 1.53-.96.96-1.32 2.22-1.32 3.36 0 2.76 2.25 3.39 4.44 3.39 1.95 0 3.21-.48 4.41-1.68l-.33 1.5h1.44l1.98-9.9c.06-.36.12-.81.12-1.08zm-2.16 4.05l-.39 2.04c-.21 1.08-.66 1.92-1.29 2.55-.87.84-2.07 1.26-3.45 1.26-2.37 0-3.3-.72-3.3-2.13 0-2.49 1.77-3.72 4.23-3.72h4.2zm17.25-7.53h-1.68l-6.57 12.63-1.68-12.63h-1.5l2.13 14.46h1.47l7.83-14.46zm12.24 3.48c0-3.15-2.82-3.66-4.68-3.66-2.31 0-3.81.63-5.16 2.16l.93 1.02c1.2-1.32 2.31-1.89 4.26-1.89 1.95 0 3.21.78 3.21 2.37 0 .39-.06.78-.12 1.08l-.36 1.8h-4.59c-1.62 0-3.03.33-4.23 1.53-.96.96-1.32 2.22-1.32 3.36 0 2.76 2.25 3.39 4.44 3.39 1.95 0 3.21-.48 4.41-1.68l-.33 1.5h1.44l1.98-9.9c.06-.36.12-.81.12-1.08zm-2.16 4.05l-.39 2.04c-.21 1.08-.66 1.92-1.29 2.55-.87.84-2.07 1.26-3.45 1.26-2.37 0-3.3-.72-3.3-2.13 0-2.49 1.77-3.72 4.23-3.72h4.2zm16.86-6.18c-1.14-.99-2.58-1.53-4.47-1.53-2.04 0-3.48.6-4.47 1.59-.87.87-1.29 2.16-1.29 3.15 0 1.11.45 2.64 3.66 3.09l1.98.27c1.41.18 2.31.6 2.31 2.1 0 1.53-1.44 3.36-4.68 3.36-2.04 0-3.27-.54-4.29-1.74l-1.11.96c1.23 1.38 2.91 2.04 5.25 2.04 1.98 0 3.81-.54 4.92-1.59 1.08-1.05 1.38-2.1 1.38-2.97 0-2.19-.99-3.09-3.54-3.45l-1.95-.27c-1.62-.21-2.49-.78-2.49-1.89 0-1.62 1.35-3.42 4.08-3.42 1.68 0 2.58.36 3.63 1.23l1.08-.93zm14.7.69c-.96-1.38-2.16-2.22-4.14-2.22-4.05 0-6.54 3.06-7.35 7.41-.15.75-.21 1.65-.21 2.19 0 2.67 1.35 5.22 5.04 5.22 1.71 0 3.39-.63 4.83-2.1l-.9-1.05c-1.26 1.32-2.37 1.89-3.93 1.89-1.77 0-3.6-1.05-3.6-3.87 0-.81.09-1.47.24-2.28.27-1.47.9-3.24 2.07-4.5 1.11-1.17 2.4-1.65 3.66-1.65 1.44 0 2.34.54 3.21 1.83l1.08-.87zm13.38-.87c-.75-.87-1.77-1.35-3.15-1.35-1.83 0-3.3.78-4.23 2.1l.39-1.92h-1.47L398.406 38h1.47l1.77-8.91c.48-2.49 2.37-4.47 4.74-4.47 1.11 0 1.8.48 2.25 1.08l1.11-.99zm4.62-1.17h-1.47L410.016 38h1.47l2.88-14.46zm1.44-6.66h-1.8l-.36 1.8h1.8l.36-1.8zm13.62 11.22c0-2.76-1.11-4.74-4.23-4.74-1.32 0-2.76.24-4.23 2.04l.39-1.86h-1.47l-4.26 21.36h1.47l1.8-8.91c.81 1.77 2.4 2.19 3.72 2.19 1.53 0 2.82-.42 3.96-1.56 1.38-1.38 2.1-3.54 2.55-5.85.18-.9.3-1.8.3-2.67zm-1.44-.06c0 .84-.15 1.8-.33 2.73-.6 3.12-1.8 6.15-5.1 6.15-2.25 0-2.97-1.5-2.97-3.42 0-.84.15-1.8.33-2.73.6-3.12 1.8-6.15 5.1-6.15 2.25 0 2.97 1.5 2.97 3.42zm12.03-4.5h-3.03l.93-4.62h-1.47l-.93 4.62h-1.95l-.21 1.08h1.95l-1.92 9.63c-.09.39-.12.78-.12 1.17 0 2.19 1.77 2.58 2.76 2.58h1.35l.27-1.26h-1.11c-1.41 0-1.83-.54-1.83-1.38 0-.39.06-.63.15-1.11l1.92-9.63h3.03l.21-1.08zm12.84 1.35c-1.14-.99-2.58-1.53-4.47-1.53-2.04 0-3.48.6-4.47 1.59-.87.87-1.29 2.16-1.29 3.15 0 1.11.45 2.64 3.66 3.09l1.98.27c1.41.18 2.31.6 2.31 2.1 0 1.53-1.44 3.36-4.68 3.36-2.04 0-3.27-.54-4.29-1.74l-1.11.96c1.23 1.38 2.91 2.04 5.25 2.04 1.98 0 3.81-.54 4.92-1.59 1.08-1.05 1.38-2.1 1.38-2.97 0-2.19-.99-3.09-3.54-3.45l-1.95-.27c-1.62-.21-2.49-.78-2.49-1.89 0-1.62 1.35-3.42 4.08-3.42 1.68 0 2.58.36 3.63 1.23l1.08-.93z" fill="#000" fill-rule="evenodd"/></svg>